<svg width="128" height="128" viewBox="0 0 128 128" fill="none" xmlns="http://www.w3.org/2000/svg">
<rect width="128" height="128" fill="#F9F9F9"/>
<path d="M60.3437 122.5C30.0766 122.5 5.5 97.9252 5.5 67.6562C5.5 37.3872 30.0766 12.8124 60.3437 12.8124V16.4687C32.0525 16.4687 9.15625 39.3631 9.15625 67.6562C9.15625 95.9493 32.0525 118.844 60.3437 118.844C88.635 118.844 111.531 95.9493 111.531 67.6562H115.187C115.187 97.9252 90.6109 122.5 60.3437 122.5Z" fill="#6D6E83"/>
<path d="M65.8281 62.1719V5.5C96.0953 5.5 122.5 30.0747 122.5 60.3438V62.1719H65.8281ZM69.4844 58.5156H118.658C117.697 31.712 96.2864 10.3026 69.4844 9.34192V58.5156Z" fill="#80D0DE"/>
<path d="M76.7968 51.2032V47.5469H80.4531V51.2032H76.7968Z" fill="#6D6E83"/>
<path d="M84.1094 51.2032V47.5469H87.7656V51.2032H84.1094Z" fill="#6D6E83"/>
<path d="M91.4219 51.2032V47.5469H95.0781V51.2032H91.4219Z" fill="#6D6E83"/>
<path d="M95.6138 105.511L59.5869 69.4843H7.32819V65.828H61.1008L98.1989 102.926L95.6138 105.511Z" fill="#6D6E83"/>
<path d="M25.0738 105.511L22.4887 102.926L59.0512 66.3634L61.6363 68.9485L25.0738 105.511Z" fill="#6D6E83"/>
</svg>
